<svg xmlns="http://www.w3.org/2000/svg" width="640" height="320"><title>role-comparison</title><metadata id="canonical-data" data-sha256="ce10c670bbcebc9e75bfae081e8cbe121ec1f24f10b5acf888d508f227d64e71">{&quot;kind&quot;:&quot;line&quot;,&quot;series&quot;:[{&quot;label&quot;:&quot;train&quot;,&quot;points&quot;:[[1,0.8128654970760234],[5,0.9532163742690059],[10,0.9766081871345029],[20,1.0]]},{&quot;label&quot;:&quot;calibration&quot;,&quot;points&quot;:[[1,0.8713450292397661],[5,0.9941520467836257],[10,1.0],[20,1.0]]},{&quot;label&quot;:&quot;holdout&quot;,&quot;points&quot;:[[1,0.9064327485380117],[5,1.0],[10,1.0],[20,1.0]]}]}</metadata><line x1="70" y1="255" x2="570" y2="255" stroke="black"/><line x1="70" y1="50" x2="70" y2="255" stroke="black"/><text x="270" y="305">Integration length L</text><text x="8" y="35">Within 50 Hz fraction</text><text x="70" y="275">1</text><text x="535" y="275">20</text><rect x="505" y="18" width="10" height="10" fill="#1f77b4"/><text x="520" y="27" font-size="11">train</text><rect x="505" y="34" width="10" height="10" fill="#d62728"/><text x="520" y="43" font-size="11">calibration</text><rect x="505" y="50" width="10" height="10" fill="#2ca02c"/><text x="520" y="59" font-size="11">holdout</text><path d="M 70.000 88.363 L 175.263 59.591 L 306.842 54.795 L 570.000 50.000" fill="none" stroke="#1f77b4" stroke-width="2"/><circle cx="70.000" cy="88.363" r="2" fill="#1f77b4"/><circle cx="175.263" cy="59.591" r="2" fill="#1f77b4"/><circle cx="306.842" cy="54.795" r="2" fill="#1f77b4"/><circle cx="570.000" cy="50.000" r="2" fill="#1f77b4"/><path d="M 70.000 76.374 L 175.263 51.199 L 306.842 50.000 L 570.000 50.000" fill="none" stroke="#d62728" stroke-width="2"/><circle cx="70.000" cy="76.374" r="2" fill="#d62728"/><circle cx="175.263" cy="51.199" r="2" fill="#d62728"/><circle cx="306.842" cy="50.000" r="2" fill="#d62728"/><circle cx="570.000" cy="50.000" r="2" fill="#d62728"/><path d="M 70.000 69.181 L 175.263 50.000 L 306.842 50.000 L 570.000 50.000" fill="none" stroke="#2ca02c" stroke-width="2"/><circle cx="70.000" cy="69.181" r="2" fill="#2ca02c"/><circle cx="175.263" cy="50.000" r="2" fill="#2ca02c"/><circle cx="306.842" cy="50.000" r="2" fill="#2ca02c"/><circle cx="570.000" cy="50.000" r="2" fill="#2ca02c"/></svg>
